# xmcd
#
# Track frame offsets:
#	150
#	21186
#	35385
#	51687
#	65754
#	82237
#	97957
#	113179
#	130766
#	147000
#
# Disc length: 2261 seconds
#
# Revision: 1
# Processed by: cddbd v1.5.2PL0 Copyright (c) Steve Scherf et al.
# Submitted via: audiograbber 1.83.01
#
DISCID=8e08d30a
DTITLE=Jake Owen - Easy Does It
DYEAR=2009
DGENRE=Country
TTITLE0=Tell Me
TTITLE1=Eight Second Ride
TTITLE2=Easy Does It
TTITLE3=Don't Think I Can't Love You
TTITLE4=Cherry On Top
TTITLE5=Who Said Whiskey [Was Meant To Drink A Woman Away]
TTITLE6=Green Bananas
TTITLE7=Anything For You
TTITLE8=Every Reason I Go Back
TTITLE9=Nothin' Grows In Shadows
EXTD=
EXTT0=
EXTT1=
EXTT2=
EXTT3=
EXTT4=
EXTT5=
EXTT6=
EXTT7=
EXTT8=
EXTT9=
PLAYORDER=
